<svg width="32" height="32" viewBox="0 0 32 32" fill="none" xmlns="http://www.w3.org/2000/svg">
<g id="Social">
<path id="bg" d="M0 16C0 24.8366 7.16344 32 16 32C24.8366 32 32 24.8366 32 16C32 7.16344 24.8366 0 16 0C7.16344 0 0 7.16344 0 16Z" fill="#1686ED"/>
<path id="facebook" d="M25.3346 16.0003C25.3346 10.867 21.1346 6.66699 16.0013 6.66699C10.868 6.66699 6.66797 10.867 6.66797 16.0003C6.66797 20.667 10.0513 24.517 14.4846 25.217V18.6837H12.1513V16.0003H14.4846V13.9003C14.4846 11.567 15.8846 10.2837 17.9846 10.2837C19.0346 10.2837 20.0846 10.517 20.0846 10.517V12.8503H18.918C17.7513 12.8503 17.4013 13.5503 17.4013 14.2503V16.0003H19.968L19.5013 18.6837H17.2846V25.3337C21.9513 24.6337 25.3346 20.667 25.3346 16.0003Z" fill="white"/>
</g>
</svg>
