<svg width="32" height="32" viewBox="0 0 32 32" fill="none" xmlns="http://www.w3.org/2000/svg">
<g id="Social">
<path id="bg" d="M0 16C0 7.16344 7.16344 0 16 0C24.8366 0 32 7.16344 32 16C32 24.8366 24.8366 32 16 32C7.16344 32 0 24.8366 0 16Z" fill="black"/>
<g id="tik_tok">
<path id="Vector" d="M14.4984 14.3001V13.6772C14.285 13.6487 14.068 13.6309 13.844 13.6309C11.173 13.6274 9 15.8022 9 18.4789C9 20.1199 9.818 21.5722 11.0699 22.4514C10.2626 21.5864 9.76821 20.4224 9.76821 19.1481C9.76821 16.5105 11.8808 14.3606 14.4984 14.3001Z" fill="#25F4EE"/>
<path id="Vector_2" d="M14.6167 21.3624C15.8081 21.3624 16.7826 20.412 16.8253 19.2303L16.8289 8.66919H18.7565C18.7173 8.45206 18.696 8.22781 18.696 8H16.0642L16.0606 18.5611C16.018 19.7428 15.0435 20.6932 13.852 20.6932C13.4822 20.6932 13.1336 20.6007 12.8242 20.4369C13.2225 20.9958 13.8769 21.3624 14.6167 21.3624Z" fill="#25F4EE"/>
<path id="Vector_3" d="M22.3585 12.254V11.6667C21.6223 11.6667 20.9394 11.4496 20.3633 11.0723C20.8754 11.6596 21.5689 12.0868 22.3585 12.254Z" fill="#25F4EE"/>
<path id="Vector_4" d="M20.3618 11.0716C19.7998 10.4273 19.462 9.5873 19.462 8.66895H18.7578C18.9392 9.67273 19.5367 10.5341 20.3618 11.0716Z" fill="#FE2C55"/>
<path id="Vector_5" d="M13.8489 16.2617C12.629 16.2617 11.6367 17.2549 11.6367 18.4758C11.6367 19.3265 12.1204 20.0669 12.8246 20.4371C12.5614 20.074 12.4049 19.6291 12.4049 19.1449C12.4049 17.924 13.3972 16.9309 14.6171 16.9309C14.8447 16.9309 15.0652 16.9701 15.2715 17.0342V14.3432C15.0581 14.3147 14.8411 14.2969 14.6171 14.2969C14.578 14.2969 14.5424 14.3004 14.5033 14.3004V16.365C14.2934 16.3009 14.0765 16.2617 13.8489 16.2617Z" fill="#FE2C55"/>
<path id="Vector_6" d="M22.3587 12.2539V14.3006C20.993 14.3006 19.7269 13.8628 18.6955 13.1224V18.4795C18.6955 21.1527 16.5225 23.3311 13.8479 23.3311C12.8166 23.3311 11.8563 23.0036 11.0703 22.4519C11.9559 23.4023 13.2184 24.0003 14.6162 24.0003C17.2871 24.0003 19.4637 21.8254 19.4637 19.1487V13.7916C20.4951 14.532 21.7612 14.9698 23.1269 14.9698V12.3358C22.8601 12.3358 22.6041 12.3073 22.3587 12.2539Z" fill="#FE2C55"/>
<path id="Vector_7" d="M18.6964 18.4789V13.1219C19.7278 13.8623 20.9939 14.3001 22.3596 14.3001V12.2534C21.57 12.0861 20.8765 11.6589 20.3644 11.0716C19.5393 10.5341 18.9453 9.67273 18.7568 8.66895H16.8292L16.8256 19.23C16.783 20.4117 15.8085 21.3621 14.6171 21.3621C13.8773 21.3621 13.2265 20.9955 12.821 20.4402C12.1168 20.0665 11.6331 19.3297 11.6331 18.4789C11.6331 17.258 12.6254 16.2649 13.8453 16.2649C14.0729 16.2649 14.2934 16.3041 14.4997 16.3681V14.3036C11.8821 14.3606 9.76953 16.5105 9.76953 19.1481C9.76953 20.4224 10.2639 21.5829 11.0712 22.4514C11.8572 23.0031 12.8175 23.3306 13.8488 23.3306C16.5198 23.3306 18.6964 21.1521 18.6964 18.4789Z" fill="white"/>
</g>
</g>
</svg>
